<mxfile host="Electron" agent="Mozilla/5.0 (X11; Linux x86_64) AppleWebKit/537.36 (KHTML, like Gecko) draw.io/27.0.5 Chrome/134.0.6998.205 Electron/35.3.0 Safari/537.36" version="27.0.5">
  <diagram id="R2lEEEUBdFMjLlhIrx00" name="Page-1">
    <mxGraphModel dx="2231" dy="1261" grid="1" gridSize="10" guides="1" tooltips="1" connect="1" arrows="1" fold="1" page="1" pageScale="1" pageWidth="1169" pageHeight="827" math="0" shadow="0" extFonts="Permanent Marker^https://fonts.googleapis.com/css?family=Permanent+Marker">
      <root>
        <mxCell id="0" />
        <mxCell id="1" parent="0" />
        <mxCell id="_uogvYm9ou4BjCA6ubhB-7" value="Расчеты" style="swimlane;whiteSpace=wrap;html=1;" vertex="1" parent="1">
          <mxGeometry x="580" y="30" width="310" height="360" as="geometry" />
        </mxCell>
        <mxCell id="_uogvYm9ou4BjCA6ubhB-49" style="edgeStyle=orthogonalEdgeStyle;rounded=0;orthogonalLoop=1;jettySize=auto;html=1;exitX=0.5;exitY=1;exitDx=0;exitDy=0;entryX=0.5;entryY=0;entryDx=0;entryDy=0;" edge="1" parent="_uogvYm9ou4BjCA6ubhB-7" source="_uogvYm9ou4BjCA6ubhB-43" target="_uogvYm9ou4BjCA6ubhB-44">
          <mxGeometry relative="1" as="geometry" />
        </mxCell>
        <mxCell id="_uogvYm9ou4BjCA6ubhB-53" style="edgeStyle=orthogonalEdgeStyle;rounded=0;orthogonalLoop=1;jettySize=auto;html=1;exitX=1;exitY=0.5;exitDx=0;exitDy=0;entryX=0;entryY=0.5;entryDx=0;entryDy=0;" edge="1" parent="_uogvYm9ou4BjCA6ubhB-7" source="_uogvYm9ou4BjCA6ubhB-43" target="_uogvYm9ou4BjCA6ubhB-52">
          <mxGeometry relative="1" as="geometry" />
        </mxCell>
        <mxCell id="_uogvYm9ou4BjCA6ubhB-43" value="Менеджер" style="rounded=1;whiteSpace=wrap;html=1;" vertex="1" parent="_uogvYm9ou4BjCA6ubhB-7">
          <mxGeometry x="30" y="30" width="120" height="60" as="geometry" />
        </mxCell>
        <mxCell id="_uogvYm9ou4BjCA6ubhB-50" style="edgeStyle=orthogonalEdgeStyle;rounded=0;orthogonalLoop=1;jettySize=auto;html=1;exitX=0.5;exitY=1;exitDx=0;exitDy=0;entryX=0.5;entryY=0;entryDx=0;entryDy=0;" edge="1" parent="_uogvYm9ou4BjCA6ubhB-7" source="_uogvYm9ou4BjCA6ubhB-44" target="_uogvYm9ou4BjCA6ubhB-45">
          <mxGeometry relative="1" as="geometry" />
        </mxCell>
        <mxCell id="_uogvYm9ou4BjCA6ubhB-57" style="edgeStyle=orthogonalEdgeStyle;rounded=0;orthogonalLoop=1;jettySize=auto;html=1;exitX=0;exitY=0.5;exitDx=0;exitDy=0;entryX=0;entryY=0.5;entryDx=0;entryDy=0;" edge="1" parent="_uogvYm9ou4BjCA6ubhB-7" source="_uogvYm9ou4BjCA6ubhB-44" target="_uogvYm9ou4BjCA6ubhB-56">
          <mxGeometry relative="1" as="geometry" />
        </mxCell>
        <mxCell id="_uogvYm9ou4BjCA6ubhB-44" value="Бонусный счет" style="rounded=1;whiteSpace=wrap;html=1;" vertex="1" parent="_uogvYm9ou4BjCA6ubhB-7">
          <mxGeometry x="30" y="110" width="120" height="60" as="geometry" />
        </mxCell>
        <mxCell id="_uogvYm9ou4BjCA6ubhB-45" value="Транзакции бонусов" style="rounded=1;whiteSpace=wrap;html=1;" vertex="1" parent="_uogvYm9ou4BjCA6ubhB-7">
          <mxGeometry x="30" y="190" width="120" height="60" as="geometry" />
        </mxCell>
        <mxCell id="_uogvYm9ou4BjCA6ubhB-58" style="edgeStyle=orthogonalEdgeStyle;rounded=0;orthogonalLoop=1;jettySize=auto;html=1;exitX=0;exitY=0.5;exitDx=0;exitDy=0;entryX=1;entryY=0.5;entryDx=0;entryDy=0;" edge="1" parent="_uogvYm9ou4BjCA6ubhB-7" source="_uogvYm9ou4BjCA6ubhB-46" target="_uogvYm9ou4BjCA6ubhB-45">
          <mxGeometry relative="1" as="geometry">
            <Array as="points">
              <mxPoint x="170" y="140" />
              <mxPoint x="170" y="220" />
            </Array>
          </mxGeometry>
        </mxCell>
        <mxCell id="_uogvYm9ou4BjCA6ubhB-46" value="Рейтинг задания" style="rounded=1;whiteSpace=wrap;html=1;" vertex="1" parent="_uogvYm9ou4BjCA6ubhB-7">
          <mxGeometry x="180" y="110" width="120" height="60" as="geometry" />
        </mxCell>
        <mxCell id="_uogvYm9ou4BjCA6ubhB-54" style="edgeStyle=orthogonalEdgeStyle;rounded=0;orthogonalLoop=1;jettySize=auto;html=1;exitX=0.5;exitY=1;exitDx=0;exitDy=0;" edge="1" parent="_uogvYm9ou4BjCA6ubhB-7" source="_uogvYm9ou4BjCA6ubhB-52" target="_uogvYm9ou4BjCA6ubhB-46">
          <mxGeometry relative="1" as="geometry" />
        </mxCell>
        <mxCell id="_uogvYm9ou4BjCA6ubhB-52" value="Задание" style="rounded=1;whiteSpace=wrap;html=1;" vertex="1" parent="_uogvYm9ou4BjCA6ubhB-7">
          <mxGeometry x="180" y="30" width="120" height="60" as="geometry" />
        </mxCell>
        <mxCell id="_uogvYm9ou4BjCA6ubhB-56" value="Транзакции выплат" style="rounded=1;whiteSpace=wrap;html=1;" vertex="1" parent="_uogvYm9ou4BjCA6ubhB-7">
          <mxGeometry x="30" y="270" width="120" height="60" as="geometry" />
        </mxCell>
        <mxCell id="_uogvYm9ou4BjCA6ubhB-8" value="Задания" style="swimlane;whiteSpace=wrap;html=1;" vertex="1" parent="1">
          <mxGeometry y="30" width="550" height="260" as="geometry" />
        </mxCell>
        <mxCell id="_uogvYm9ou4BjCA6ubhB-39" value="" style="edgeStyle=orthogonalEdgeStyle;rounded=0;orthogonalLoop=1;jettySize=auto;html=1;" edge="1" parent="_uogvYm9ou4BjCA6ubhB-8" source="_uogvYm9ou4BjCA6ubhB-13" target="_uogvYm9ou4BjCA6ubhB-15">
          <mxGeometry relative="1" as="geometry" />
        </mxCell>
        <mxCell id="_uogvYm9ou4BjCA6ubhB-18" style="edgeStyle=orthogonalEdgeStyle;rounded=0;orthogonalLoop=1;jettySize=auto;html=1;exitX=1;exitY=0.5;exitDx=0;exitDy=0;" edge="1" parent="_uogvYm9ou4BjCA6ubhB-8" source="_uogvYm9ou4BjCA6ubhB-14" target="_uogvYm9ou4BjCA6ubhB-15">
          <mxGeometry relative="1" as="geometry" />
        </mxCell>
        <mxCell id="_uogvYm9ou4BjCA6ubhB-14" value="Менеджер" style="rounded=1;whiteSpace=wrap;html=1;" vertex="1" parent="_uogvYm9ou4BjCA6ubhB-8">
          <mxGeometry x="20" y="50" width="120" height="60" as="geometry" />
        </mxCell>
        <mxCell id="_uogvYm9ou4BjCA6ubhB-24" style="edgeStyle=orthogonalEdgeStyle;rounded=0;orthogonalLoop=1;jettySize=auto;html=1;exitX=0.25;exitY=1;exitDx=0;exitDy=0;entryX=0.5;entryY=0;entryDx=0;entryDy=0;" edge="1" parent="_uogvYm9ou4BjCA6ubhB-8" source="_uogvYm9ou4BjCA6ubhB-15" target="_uogvYm9ou4BjCA6ubhB-22">
          <mxGeometry relative="1" as="geometry" />
        </mxCell>
        <mxCell id="_uogvYm9ou4BjCA6ubhB-25" value="has_one" style="edgeLabel;html=1;align=center;verticalAlign=middle;resizable=0;points=[];" vertex="1" connectable="0" parent="_uogvYm9ou4BjCA6ubhB-24">
          <mxGeometry x="-0.0428" relative="1" as="geometry">
            <mxPoint as="offset" />
          </mxGeometry>
        </mxCell>
        <mxCell id="_uogvYm9ou4BjCA6ubhB-15" value="Задание" style="rounded=1;whiteSpace=wrap;html=1;" vertex="1" parent="_uogvYm9ou4BjCA6ubhB-8">
          <mxGeometry x="220" y="50" width="120" height="60" as="geometry" />
        </mxCell>
        <mxCell id="_uogvYm9ou4BjCA6ubhB-22" value="Количество выполнений задания" style="rounded=1;whiteSpace=wrap;html=1;" vertex="1" parent="_uogvYm9ou4BjCA6ubhB-8">
          <mxGeometry x="90" y="160" width="120" height="60" as="geometry" />
        </mxCell>
        <mxCell id="_uogvYm9ou4BjCA6ubhB-13" value="Кандидат" style="rounded=1;whiteSpace=wrap;html=1;" vertex="1" parent="_uogvYm9ou4BjCA6ubhB-8">
          <mxGeometry x="420" y="50" width="120" height="60" as="geometry" />
        </mxCell>
        <mxCell id="_uogvYm9ou4BjCA6ubhB-21" value="&lt;font&gt;а может и не one, но в требованиях не описано, что происходит, если кандидат провалил задание&lt;/font&gt;" style="rounded=0;whiteSpace=wrap;html=1;fillColor=#F7F763;strokeColor=#d6b656;fontSize=7;" vertex="1" parent="_uogvYm9ou4BjCA6ubhB-8">
          <mxGeometry x="340" y="-10" width="90" height="70" as="geometry" />
        </mxCell>
        <mxCell id="_uogvYm9ou4BjCA6ubhB-6" value="Найм" style="swimlane;whiteSpace=wrap;html=1;" vertex="1" parent="1">
          <mxGeometry y="320" width="550" height="270" as="geometry" />
        </mxCell>
        <mxCell id="_uogvYm9ou4BjCA6ubhB-32" style="edgeStyle=orthogonalEdgeStyle;rounded=0;orthogonalLoop=1;jettySize=auto;html=1;exitX=1;exitY=0.5;exitDx=0;exitDy=0;entryX=0;entryY=0.5;entryDx=0;entryDy=0;" edge="1" parent="_uogvYm9ou4BjCA6ubhB-6" source="_uogvYm9ou4BjCA6ubhB-10" target="_uogvYm9ou4BjCA6ubhB-11">
          <mxGeometry relative="1" as="geometry" />
        </mxCell>
        <mxCell id="_uogvYm9ou4BjCA6ubhB-10" value="Менеджер" style="rounded=1;whiteSpace=wrap;html=1;" vertex="1" parent="_uogvYm9ou4BjCA6ubhB-6">
          <mxGeometry x="20" y="30" width="120" height="60" as="geometry" />
        </mxCell>
        <mxCell id="_uogvYm9ou4BjCA6ubhB-27" style="edgeStyle=orthogonalEdgeStyle;rounded=0;orthogonalLoop=1;jettySize=auto;html=1;exitX=0.75;exitY=1;exitDx=0;exitDy=0;entryX=0;entryY=0.5;entryDx=0;entryDy=0;" edge="1" parent="_uogvYm9ou4BjCA6ubhB-6" source="_uogvYm9ou4BjCA6ubhB-11" target="_uogvYm9ou4BjCA6ubhB-26">
          <mxGeometry relative="1" as="geometry" />
        </mxCell>
        <mxCell id="_uogvYm9ou4BjCA6ubhB-28" style="edgeStyle=orthogonalEdgeStyle;rounded=0;orthogonalLoop=1;jettySize=auto;html=1;exitX=0.5;exitY=1;exitDx=0;exitDy=0;entryX=0;entryY=0.5;entryDx=0;entryDy=0;" edge="1" parent="_uogvYm9ou4BjCA6ubhB-6" source="_uogvYm9ou4BjCA6ubhB-11" target="_uogvYm9ou4BjCA6ubhB-12">
          <mxGeometry relative="1" as="geometry" />
        </mxCell>
        <mxCell id="_uogvYm9ou4BjCA6ubhB-11" value="Задание" style="rounded=1;whiteSpace=wrap;html=1;" vertex="1" parent="_uogvYm9ou4BjCA6ubhB-6">
          <mxGeometry x="210" y="30" width="120" height="60" as="geometry" />
        </mxCell>
        <mxCell id="_uogvYm9ou4BjCA6ubhB-12" value="Рейтинг задания" style="rounded=1;whiteSpace=wrap;html=1;" vertex="1" parent="_uogvYm9ou4BjCA6ubhB-6">
          <mxGeometry x="330" y="190" width="120" height="60" as="geometry" />
        </mxCell>
        <mxCell id="_uogvYm9ou4BjCA6ubhB-26" value="Количество выполнений задания" style="rounded=1;whiteSpace=wrap;html=1;" vertex="1" parent="_uogvYm9ou4BjCA6ubhB-6">
          <mxGeometry x="330" y="120" width="120" height="60" as="geometry" />
        </mxCell>
        <mxCell id="_uogvYm9ou4BjCA6ubhB-9" value="Кандидат" style="rounded=1;whiteSpace=wrap;html=1;" vertex="1" parent="_uogvYm9ou4BjCA6ubhB-6">
          <mxGeometry x="420" y="30" width="120" height="60" as="geometry" />
        </mxCell>
        <mxCell id="_uogvYm9ou4BjCA6ubhB-33" style="edgeStyle=orthogonalEdgeStyle;rounded=0;orthogonalLoop=1;jettySize=auto;html=1;exitX=0;exitY=0.5;exitDx=0;exitDy=0;entryX=1;entryY=0.5;entryDx=0;entryDy=0;" edge="1" parent="_uogvYm9ou4BjCA6ubhB-6" source="_uogvYm9ou4BjCA6ubhB-9" target="_uogvYm9ou4BjCA6ubhB-11">
          <mxGeometry relative="1" as="geometry" />
        </mxCell>
        <mxCell id="_uogvYm9ou4BjCA6ubhB-34" style="edgeStyle=orthogonalEdgeStyle;rounded=0;orthogonalLoop=1;jettySize=auto;html=1;exitX=0.5;exitY=1;exitDx=0;exitDy=0;strokeWidth=2;jumpStyle=arc;" edge="1" parent="1" source="_uogvYm9ou4BjCA6ubhB-14" target="_uogvYm9ou4BjCA6ubhB-10">
          <mxGeometry relative="1" as="geometry" />
        </mxCell>
        <mxCell id="_uogvYm9ou4BjCA6ubhB-40" style="edgeStyle=orthogonalEdgeStyle;rounded=0;orthogonalLoop=1;jettySize=auto;html=1;exitX=0.75;exitY=1;exitDx=0;exitDy=0;entryX=0.75;entryY=0;entryDx=0;entryDy=0;strokeWidth=2;jumpStyle=arc;" edge="1" parent="1" source="_uogvYm9ou4BjCA6ubhB-15" target="_uogvYm9ou4BjCA6ubhB-11">
          <mxGeometry relative="1" as="geometry">
            <Array as="points">
              <mxPoint x="300" y="140" />
            </Array>
          </mxGeometry>
        </mxCell>
        <mxCell id="_uogvYm9ou4BjCA6ubhB-42" style="edgeStyle=orthogonalEdgeStyle;rounded=0;orthogonalLoop=1;jettySize=auto;html=1;entryX=0.5;entryY=1;entryDx=0;entryDy=0;strokeWidth=2;jumpStyle=arc;exitX=0.5;exitY=0;exitDx=0;exitDy=0;" edge="1" parent="1" source="_uogvYm9ou4BjCA6ubhB-26" target="_uogvYm9ou4BjCA6ubhB-22">
          <mxGeometry relative="1" as="geometry">
            <mxPoint x="460" y="440" as="sourcePoint" />
            <Array as="points">
              <mxPoint x="390" y="280" />
              <mxPoint x="150" y="280" />
            </Array>
          </mxGeometry>
        </mxCell>
        <mxCell id="_uogvYm9ou4BjCA6ubhB-41" style="edgeStyle=orthogonalEdgeStyle;rounded=0;orthogonalLoop=1;jettySize=auto;html=1;exitX=0.5;exitY=0;exitDx=0;exitDy=0;entryX=0.5;entryY=1;entryDx=0;entryDy=0;strokeWidth=2;jumpStyle=arc;" edge="1" parent="1" source="_uogvYm9ou4BjCA6ubhB-9" target="_uogvYm9ou4BjCA6ubhB-13">
          <mxGeometry relative="1" as="geometry" />
        </mxCell>
        <mxCell id="_uogvYm9ou4BjCA6ubhB-47" style="edgeStyle=orthogonalEdgeStyle;rounded=0;orthogonalLoop=1;jettySize=auto;html=1;exitX=0.5;exitY=0;exitDx=0;exitDy=0;strokeWidth=2;" edge="1" parent="1" source="_uogvYm9ou4BjCA6ubhB-14" target="_uogvYm9ou4BjCA6ubhB-43">
          <mxGeometry relative="1" as="geometry">
            <Array as="points">
              <mxPoint x="80" y="10" />
              <mxPoint x="670" y="10" />
            </Array>
          </mxGeometry>
        </mxCell>
      </root>
    </mxGraphModel>
  </diagram>
</mxfile>
